C:\Users\r0593348\3dpredictsim\Results\Batchsim_tmt_linear\Pog_s1_tmt_aCst_d00_k800_ig24_act_GRF.mot
nRows=25
nColumns=19

name C:\Users\r0593348\3dpredictsim\Results\Batchsim_tmt_linear\Pog_s1_tmt_aCst_d00_k800_ig24_act_GRF.mot
datacolumns 19
datarows 25
range 0.0000000000 0.3081968177
endheader
time 	ground_force_vx	ground_force_vy	ground_force_vz	ground_force_px	ground_force_py	ground_force_pz	1_ground_force_vx	1_ground_force_vy	1_ground_force_vz	1_ground_force_px	1_ground_force_py	1_ground_force_pz	ground_torque_x	ground_torque_y	ground_torque_z	1_ground_torque_x	1_ground_torque_y	1_ground_torque_z
        0.0000000000	      -28.9565555678	       22.7615235247	        6.6977680053	        0.2098340000	        0.0000000000	        0.0513405049	      106.5946501001	      430.9805550295	        0.4275435738	       -0.3708327978	        0.0000000000	       -0.0336207749	        0.0000000000	        0.0000000000	        0.0000000000	        0.0000000000	        0.0000000000	        0.0000000000	
        0.0128415341	     -105.0111724741	      107.6255730025	       36.7204839129	        0.2178163693	        0.0000000000	        0.0495303797	       70.8044683937	      329.7384166609	       -6.1262353803	       -0.3626118928	        0.0000000000	       -0.0305444886	        0.0000000000	        0.0000000000	        0.0000000000	        0.0000000000	        0.0000000000	        0.0000000000	
        0.0256830681	      -54.4748159223	      313.1225257964	       11.9380130249	        0.2231191006	        0.0000000000	        0.0477207193	       40.1503611547	      227.8346601710	      -12.0008647903	       -0.3495196702	        0.0000000000	       -0.0251464136	        0.0000000000	        0.0000000000	        0.0000000000	        0.0000000000	        0.0000000000	        0.0000000000	
        0.0385246022	      -61.9128658856	      537.7647014533	       -6.9322160842	        0.2259456232	        0.0000000000	        0.0475607107	       26.0268235538	      181.6632324753	      -12.5616144478	       -0.3447190485	        0.0000000000	       -0.0228242372	        0.0000000000	        0.0000000000	        0.0000000000	        0.0000000000	        0.0000000000	        0.0000000000	
        0.0513661363	     -114.8025156087	      754.6268316229	      -15.1783538254	        0.2343791923	        0.0000000000	        0.0494725762	       19.7965503563	      133.0663749076	      -15.9534444201	       -0.3443800820	        0.0000000000	       -0.0231827885	        0.0000000000	        0.0000000000	        0.0000000000	        0.0000000000	        0.0000000000	        0.0000000000	
        0.0642076703	     -152.0988439073	      895.6298887416	      -20.0637547382	        0.2429303355	        0.0000000000	        0.0514943077	        6.3113832765	       74.5497968945	      -15.9577728607	       -0.3444608732	        0.0000000000	       -0.0236618989	        0.0000000000	        0.0000000000	        0.0000000000	        0.0000000000	        0.0000000000	        0.0000000000	
        0.0770492044	     -156.3611205960	      916.8394723238	      -20.9066933130	        0.2483802272	        0.0000000000	        0.0525928581	       -8.7903094525	       14.2259826762	       -4.1436100530	       -0.3484481993	        0.0000000000	       -0.0235164489	        0.0000000000	        0.0000000000	        0.0000000000	        0.0000000000	        0.0000000000	        0.0000000000	
        0.0898907385	     -138.9636450671	      875.0342082491	      -20.0380330169	        0.2523694753	        0.0000000000	        0.0532132507	        0.5053347523	       -0.4097240572	       -0.0176599515	        0.0000000000	        0.0000000000	        0.0000000000	        0.0000000000	        0.0000000000	        0.0000000000	        0.0000000000	        0.0000000000	        0.0000000000	
        0.1027322726	     -122.1659680016	      812.8880912930	      -18.4194964336	        0.2561146114	        0.0000000000	        0.0535169039	       -6.2090121679	        4.3846992312	        0.3425384680	        0.0000000000	        0.0000000000	        0.0000000000	        0.0000000000	        0.0000000000	        0.0000000000	        0.0000000000	        0.0000000000	        0.0000000000	
        0.1155738066	     -107.7211220931	      766.7504035936	      -17.6261074373	        0.2600380124	        0.0000000000	        0.0535230824	       -5.1895288495	        3.2220519267	        0.3619192651	        0.0000000000	        0.0000000000	        0.0000000000	        0.0000000000	        0.0000000000	        0.0000000000	        0.0000000000	        0.0000000000	        0.0000000000	
        0.1284153407	      -94.9678870468	      731.8141270654	      -17.4715428917	        0.2645055907	        0.0000000000	        0.0533551139	       -3.5433265744	        2.0186459668	        0.2610651551	        0.0000000000	        0.0000000000	        0.0000000000	        0.0000000000	        0.0000000000	        0.0000000000	        0.0000000000	        0.0000000000	        0.0000000000	
        0.1412568748	      -85.1533184691	      705.5097299832	      -18.0198458524	        0.2697618708	        0.0000000000	        0.0529347742	       -2.7172519860	        1.4494424217	        0.2084518137	        0.0000000000	        0.0000000000	        0.0000000000	        0.0000000000	        0.0000000000	        0.0000000000	        0.0000000000	        0.0000000000	        0.0000000000	
        0.1540984088	      -74.9391378169	      681.1921864357	      -18.7071234121	        0.2749257366	        0.0000000000	        0.0525340303	       -2.0545017167	        1.0476734872	        0.1502858933	        0.0000000000	        0.0000000000	        0.0000000000	        0.0000000000	        0.0000000000	        0.0000000000	        0.0000000000	        0.0000000000	        0.0000000000	
        0.1669399429	      -64.8807481955	      657.2815618643	      -19.4850088246	        0.2797051768	        0.0000000000	        0.0522549661	       -1.4939942819	        0.7326204998	        0.1081174035	        0.0000000000	        0.0000000000	        0.0000000000	        0.0000000000	        0.0000000000	        0.0000000000	        0.0000000000	        0.0000000000	        0.0000000000	
        0.1797814770	      -55.5298203522	      636.3939034679	      -20.0284330645	        0.2843753089	        0.0000000000	        0.0520640403	       -1.1404907481	        0.5418386990	        0.0822205395	        0.0000000000	        0.0000000000	        0.0000000000	        0.0000000000	        0.0000000000	        0.0000000000	        0.0000000000	        0.0000000000	        0.0000000000	
        0.1926230110	      -47.4769058260	      619.1984299600	      -20.3979397312	        0.2891395174	        0.0000000000	        0.0519102000	       -0.9334880294	        0.4315248439	        0.0667401463	        0.0000000000	        0.0000000000	        0.0000000000	        0.0000000000	        0.0000000000	        0.0000000000	        0.0000000000	        0.0000000000	        0.0000000000	
        0.2054645451	      -40.4200321526	      605.0961718465	      -20.4092754380	        0.2939761007	        0.0000000000	        0.0517645020	       -0.8209850099	        0.3709843175	        0.0581131503	        0.0000000000	        0.0000000000	        0.0000000000	        0.0000000000	        0.0000000000	        0.0000000000	        0.0000000000	        0.0000000000	        0.0000000000	
        0.2183060792	      -34.9740280639	      595.2634111742	      -20.3152228662	        0.2990437120	        0.0000000000	        0.0515832029	       -0.7710596303	        0.3414159455	        0.0538593729	        0.0000000000	        0.0000000000	        0.0000000000	        0.0000000000	        0.0000000000	        0.0000000000	        0.0000000000	        0.0000000000	        0.0000000000	
        0.2311476132	      -29.7457667895	      589.3996302009	      -19.9071614155	        0.3046281282	        0.0000000000	        0.0513179659	       -0.7800408033	        0.3389267786	        0.0536510564	        0.0000000000	        0.0000000000	        0.0000000000	        0.0000000000	        0.0000000000	        0.0000000000	        0.0000000000	        0.0000000000	        0.0000000000	
        0.2439891473	      -25.6175873483	      585.8367333389	      -19.3465523092	        0.3107704614	        0.0000000000	        0.0509339907	       -0.8475358625	        0.3615352659	        0.0568400138	        0.0000000000	        0.0000000000	        0.0000000000	        0.0000000000	        0.0000000000	        0.0000000000	        0.0000000000	        0.0000000000	        0.0000000000	
        0.2568306814	      -22.1041165815	      584.3599041804	      -18.8475459778	        0.3172534038	        0.0000000000	        0.0504445207	       -0.9687449127	        0.4061367264	        0.0627753398	        0.0000000000	        0.0000000000	        0.0000000000	        0.0000000000	        0.0000000000	        0.0000000000	        0.0000000000	        0.0000000000	        0.0000000000	
        0.2696722155	      -18.9629676475	      584.1264230653	      -18.4892900411	        0.3239270594	        0.0000000000	        0.0498724684	       -1.1315668454	        0.4669563985	        0.0705113160	        0.0000000000	        0.0000000000	        0.0000000000	        0.0000000000	        0.0000000000	        0.0000000000	        0.0000000000	        0.0000000000	        0.0000000000	
        0.2825137495	      -16.1010099738	      583.3917009248	      -18.6243147041	        0.3305928109	        0.0000000000	        0.0492551220	       -1.3142675360	        0.5348036941	        0.0788741572	        0.0000000000	        0.0000000000	        0.0000000000	        0.0000000000	        0.0000000000	        0.0000000000	        0.0000000000	        0.0000000000	        0.0000000000	
        0.2953552836	      -13.2769291549	      581.3522678295	      -18.8542609483	        0.3371584849	        0.0000000000	        0.0486210790	       -1.4865191806	        0.5976295620	        0.0862773186	        0.0000000000	        0.0000000000	        0.0000000000	        0.0000000000	        0.0000000000	        0.0000000000	        0.0000000000	        0.0000000000	        0.0000000000	
        0.3081968177	      -10.3222551819	      577.9922826540	      -18.8417508854	        0.3435883998	        0.0000000000	        0.0479830538	       -1.6141164023	        0.6424040578	        0.0906299642	        0.0000000000	        0.0000000000	        0.0000000000	        0.0000000000	        0.0000000000	        0.0000000000	        0.0000000000	        0.0000000000	        0.0000000000	
